# AST/ASF file generated using VICON BodyLanguage
# -----------------------------------------------
:version 1.10
:name VICON
:units
  mass 1.0
  length 0.45
  angle deg
:documentation
   .ast/.asf automatically generated from VICON data using
   VICON BodyBuilder and BodyLanguage model FoxedUp or BRILLIANT.MOD
:root
   order TX TY TZ RX RY RZ
   axis XYZ
   position 0 0 0  
   orientation 0 0 0 
:bonedata
  begin
     id 1 
     name lhipjoint
     direction 0.661853 -0.702389 0.261917 
     length 2.64193 
     axis 0 0 0  XYZ
  end
  begin
     id 2 
     name lfemur
     direction 0.34202 -0.939693 0  
     length 7.01722  
     axis 0 0 20  XYZ
    dof rx ry rz
    limits (-160.0 20.0)
           (-70.0 70.0)
           (-60.0 70.0)
  end
  begin
     id 3 
     name ltibia
     direction 0.34202 -0.939693 0   
     length 8.25008   
     axis 0 0 20   XYZ
    dof rx
    limits (-10.0 170.0)
  end
  begin
     id 4 
     name lfoot
     direction 0.0709916 -0.195048 0.978221   
     length 2.31941   
     axis -90 7.62852e-016 20   XYZ
    dof rx rz
    limits (-45.0 90.0)
           (-70.0 20.0)
  end
  begin
     id 5 
     name ltoes
     direction 1.53586e-011 -4.22017e-011 1   
     length 1.16486   
     axis -90 7.62852e-016 20   XYZ
    dof rx
    limits (-90.0 20.0)
  end
  begin
     id 6 
     name rhipjoint
     direction -0.638185 -0.721362 0.268992   
     length 2.57244  
     axis 0 0 0  XYZ 
  end
  begin
     id 7 
     name rfemur
     direction -0.34202 -0.939693 0   
     length 7.07017   
     axis 0 0 -20   XYZ
    dof rx ry rz
    limits (-160.0 20.0)
           (-70.0 70.0)
           (-70.0 60.0)
  end
  begin
     id 8 
     name rtibia
     direction -0.34202 -0.939693 0   
     length 8.20386   
     axis 0 0 -20   XYZ
    dof rx
    limits (-10.0 170.0)
 end
 begin
     id 9 
     name rfoot
     direction -0.0822429 -0.225961 0.970658   
     length 2.32215  
     axis -90 -7.62852e-016 -20   XYZ
    dof rx rz
    limits (-45.0 90.0)
           (-20.0 70.0)
  end
  begin
     id 10 
     name rtoes
     direction -1.53597e-011 -4.21689e-011 1   
     length 1.16333   
     axis -90 -7.62852e-016 -20   XYZ
    dof rx
    limits (-90.0 20.0)
  end
  begin
     id 11 
     name lowerback
     direction -0.0131557 0.998589 -0.0514484   
     length 2.14993   
     axis 0 0 0   XYZ
    dof rx ry rz
    limits (-20.0 45.0)
           (-30.0 30.0)
           (-30.0 30.0)
  end
  begin
     id 12 
     name upperback
     direction -0.000776481 0.999993 0.00352685   
     length 2.15301   
     axis 0 0 0   XYZ
    dof rx ry rz
    limits (-20.0 45.0)
           (-30.0 30.0)
           (-30.0 30.0)
  end
  begin
     id 13 
     name thorax
     direction 0.00438186 0.999609 0.0276143   
     length 2.15424   
     axis 0 0 0   XYZ
    dof rx ry rz
    limits (-20.0 45.0)
           (-30.0 30.0)
           (-30.0 30.0)
  end
  begin
     id 14 
     name lowerneck
     direction -0.0488006 0.998094 0.0377807   
     length 1.90481   
     axis 0 0 0   XYZ
    dof rx ry rz
    limits (-20.0 45.0)
           (-30.0 30.0)
           (-30.0 30.0)
  end
  begin
     id 15 
     name upperneck
     direction 0.0443769 0.990702 -0.12861   
     length 1.91305   
     axis 0 0 0   XYZ
    dof rx ry rz
    limits (-20.0 45.0)
           (-30.0 30.0)
           (-30.0 30.0)
  end
  begin
     id 16
     name head
     direction 0.0165599 0.998647 -0.0492982  
     length 1.92369  
     axis 0 0 0   XYZ
    dof rx ry rz
    limits (-20.0 45.0)
           (-30.0 30.0)
           (-30.0 30.0)
  end
  begin
     id 17 
     name lclavicle
     direction 0.911936 0.410197 -0.0105506  
     length 3.52622  
     axis 0 0 0   XYZ
    dof ry rz
    limits (-20.0 10.0)
           (0.0 20.0)
  end
  begin
     id 18 
     name lhumerus
     direction 1 -4.48974e-011 -2.48591e-028   
     length 5.47651   
     axis 180 -30 -90   XYZ
    dof rx ry rz
    limits (-60.0 90.0)
           (-90.0 90.0)
           (-90.0 90.0)
  end
  begin
     id 19
     name lradius
     direction 1 -4.48938e-011 -4.40099e-027   
     length 3.09058   
     axis 180 -30 -90   XYZ
    dof rx
    limits (-10.0 170.0)
  end
  begin
     id 20
     name lwrist
     direction 1 -4.49042e-011 -2.99852e-027   
     length 1.54529   
     axis 1.95339e-015 90 90   XYZ
    dof ry
    limits (-180.0 0.0)
 end
  begin
     id 21 
     name lhand
     direction 1 -4.48815e-011 -5.98193e-027   
     length 0.771611   
     axis 3.82337e-015 90 90   XYZ
    dof rx rz
    limits (-90.0 90.0)
           (-45.0 45.0)
  end
  begin
     id 22 
     name lfingers
     direction 1 -4.49034e-011 -1.1993e-026   
     length 0.622093   
     axis 7.64668e-015 90 90   XYZ
    dof rx
    limits (0.0 90.0)
  end
  begin
     id 23
     name lthumb
     direction 0.707107 -6.34867e-011 0.707107   
     length 0.893204   
     axis -90 45 -1.62303e-014   XYZ
    dof rx rz
    limits (-45.0 45.0)
           (-45.0 45.0)
  end
  begin
     id 24 
     name rclavicle
     direction -0.93442 0.355634 -0.0195692   
     length 3.62463  
     axis 0 0 0   XYZ 
    dof ry rz
    limits (-10.0 20.0)
           (-20.0 0.0)
  end
  begin
     id 25 
     name rhumerus
     direction -1 -4.48957e-011 -1.19147e-027  
     length 5.14182   
     axis 180 30 90   XYZ
    dof rx ry rz
    limits (-90.0 60.0)
           (-90.0 90.0)
           (-90.0 90.0)
  end
  begin
     id 26 
     name rradius
     direction -1 -4.48952e-011 -3.81062e-027   
     length 3.35565   
     axis 180 30 90   XYZ
    dof rx
    limits (-10.0 170.0)
  end
  begin
     id 27 
     name rwrist
     direction -1 -4.48973e-011 -2.99621e-027   
     length 1.67782   
     axis 1.95339e-015 -90 -90   XYZ
    dof ry
    limits (-180.0 0.0)
  end
  begin
     id 28
     name rhand
     direction -1 -4.48895e-011 -5.98727e-027   
     length 0.801042   
     axis 3.82337e-015 -90 -90   XYZ
    dof rx rz
    limits (-90.0 90.0)
           (-45.0 45.0)
  end
  begin
     id 29
     name rfingers
     direction -1 -4.49065e-011 -1.19972e-026   
     length 0.645821   
     axis 7.64668e-015 -90 -90   XYZ
    dof rx
    limits (0.0 90.0)
  end
  begin
     id 30
     name rthumb
     direction -0.707107 -6.34957e-011 0.707107   
     length 0.927273   
     axis -90 -45 1.62303e-014   XYZ
    dof rx rz
    limits (-45.0 45.0)
           (-45.0 45.0)
  end
:hierarchy
  begin
    root lhipjoint rhipjoint lowerback
    lhipjoint lfemur
    lfemur ltibia
    ltibia lfoot
    lfoot ltoes
    rhipjoint rfemur
    rfemur rtibia
    rtibia rfoot
    rfoot rtoes
    lowerback upperback
    upperback thorax
    thorax lowerneck lclavicle rclavicle
    lowerneck upperneck
    upperneck head
    lclavicle lhumerus
    lhumerus lradius
    lradius lwrist
    lwrist lhand lthumb
    lhand lfingers
    rclavicle rhumerus
    rhumerus rradius
    rradius rwrist
    rwrist rhand rthumb
    rhand rfingers
  end

#!OML:ASF E:\Style4\Style4.ASF
:FULLY-SPECIFIED
:DEGREES
488
root -0.230462 17.8248 -2.05134 -0.311957 -1.8052 1.35859
lowerback 5.95631 1.92504 -0.546686
upperback 1.83725 2.54104 0.668878
thorax -1.49947 1.26751 0.811184
lowerneck -2.00273 -4.8477 -6.16599
upperneck 4.08768 -6.43543 4.22452
head 2.01846 -3.22157 2.25704
rclavicle 2.32081e-014 -6.36111e-015
rhumerus 34.015 40.1308 -39.6017
rradius 86.0042
rwrist -44.9744
rhand -14.1982 23.2745
rfingers 7.12502
rthumb 11.938 -6.36514
lclavicle 2.32081e-014 -6.36111e-015
lhumerus 81.6843 -57.7635 -12.7627
lradius 102.66
lwrist 12.0446
lhand -9.87917 10.7043
lfingers 7.12502
lthumb 16.1 40.0555
rfemur -12.2259 1.8937 17.8247
rtibia 30.943
rfoot -16.9943 -14.4899
rtoes -12.3086
lfemur -9.83284 -3.12007 -19.7409
ltibia 28.7872
lfoot -18.6679 9.90509
ltoes -14.3973
489
root -0.230817 17.8213 -2.05193 -0.309709 -1.72658 1.32709
lowerback 6.05718 1.92926 -0.0846634
upperback 1.75423 2.56741 0.312956
thorax -1.60492 1.28065 0.180631
lowerneck -1.98275 -4.89071 -5.86281
upperneck 4.11378 -6.51614 4.43746
head 2.02459 -3.25316 2.27064
rclavicle -2.27111e-014 8.74653e-015
rhumerus 33.3031 40.6294 -40.0357
rradius 84.4584
rwrist -44.0236
rhand -14.4132 23.0882
rfingers 7.12502
rthumb 11.7307 -6.56332
lclavicle -2.27111e-014 8.74653e-015
lhumerus 81.1327 -57.4573 -12.2235
lradius 103.308
lwrist 12.2713
lhand -10.0268 10.9935
lfingers 7.12502
lthumb 15.9578 40.3561
rfemur -12.2684 1.89547 17.8562
rtibia 30.9345
rfoot -17.0307 -14.6969
rtoes -13.0447
lfemur -9.89561 -3.14656 -19.7008
ltibia 28.863
lfoot -18.624 9.90909
ltoes -14.9215
490
root -0.23267 17.8175 -2.0516 -0.333747 -1.64545 1.26263
lowerback 6.19411 1.91095 0.452835
upperback 1.67122 2.56871 -0.0759209
thorax -1.72492 1.28011 -0.525453
lowerneck -1.9657 -4.91546 -5.56032
upperneck 4.11487 -6.57535 4.72797
head 2.02542 -3.27241 2.31099
rclavicle 3.24267e-014 -3.97569e-015
rhumerus 32.5055 41.2225 -40.602
rradius 83.0339
rwrist -43.0278
rhand -14.3278 23.0556
rfingers 7.12502
rthumb 11.813 -6.59119
lclavicle 3.24267e-014 -3.97569e-015
lhumerus 80.4267 -57.1562 -11.5674
lradius 103.864
lwrist 12.7578
lhand -9.94588 10.8048
lfingers 7.12502
lthumb 16.0358 40.1612
rfemur -12.2325 1.88755 17.9327
rtibia 30.8856
rfoot -16.9632 -14.8732
rtoes -13.8031
lfemur -9.93107 -3.17557 -19.6227
ltibia 28.9634
lfoot -18.5902 9.92251
ltoes -15.2629
491
root -0.233278 17.8159 -2.05077 -0.33965 -1.56518 1.23005
lowerback 6.15426 1.92563 0.457494
upperback 1.66512 2.58824 -0.0862166
thorax -1.70811 1.28994 -0.538695
lowerneck -1.91798 -4.90965 -5.55468
upperneck 4.03471 -6.57115 4.79718
head 1.99322 -3.26942 2.33468
rclavicle -1.27968e-014 -5.1684e-015
rhumerus 32.0809 42.0459 -40.3451
rradius 81.7813
rwrist -42.0677
rhand -13.852 23.0442
rfingers 7.12502
rthumb 12.2718 -6.57569
lclavicle -1.27968e-014 -5.1684e-015
lhumerus 79.098 -56.8817 -9.75871
lradius 104.223
lwrist 13.2606
lhand -10.0686 10.1819
lfingers 7.12502
lthumb 15.9176 39.5478
rfemur -12.1832 1.84633 17.9688
rtibia 30.8287
rfoot -16.9289 -14.9523
rtoes -13.7602
lfemur -9.98915 -3.22544 -19.5871
ltibia 29.0729
lfoot -18.6402 9.87945
ltoes -15.4397
492
root -0.235734 17.8146 -2.05014 -0.365185 -1.46107 1.16513
lowerback 5.99165 1.99616 0.307776
upperback 1.762 2.67485 0.0478303
thorax -1.53032 1.33425 -0.315382
lowerneck -1.84141 -4.96608 -5.64479
upperneck 3.79258 -6.64057 4.80311
head 1.90832 -3.30596 2.35384
rclavicle 2.42766e-014 -3.18055e-015
rhumerus 31.7045 42.8496 -39.7216
rradius 80.7592
rwrist -40.9604
rhand -13.5539 23.0431
rfingers 7.12502
rthumb 12.5592 -6.55938
lclavicle 2.42766e-014 -3.18055e-015
lhumerus 77.5226 -56.4635 -7.37006
lradius 104.402
lwrist 13.4833
lhand -10.0019 9.82803
lfingers 7.12502
lthumb 15.9818 39.1888
rfemur -12.1169 1.80286 18.0519
rtibia 30.8002
rfoot -16.917 -15.0481
rtoes -13.8126
lfemur -10.0182 -3.22606 -19.5006
ltibia 29.1487
lfoot -18.6698 9.79237
ltoes -15.3616
493
root -0.237658 17.8134 -2.04791 -0.372495 -1.35955 1.10142
lowerback 5.85542 2.05234 0.292307
upperback 1.84241 2.74887 0.0897157
thorax -1.37417 1.37183 -0.261662
lowerneck -1.83962 -5.04748 -5.70402
upperneck 3.58887 -6.74411 4.85586
head 1.85245 -3.35726 2.38007
rclavicle 1.22998e-014 3.97569e-016
rhumerus 31.2769 43.7791 -39.1608
rradius 79.9495
rwrist -39.8902
rhand -13.5712 22.956
rfingers 7.12502
rthumb 12.5426 -6.64751
lclavicle 1.22998e-014 3.97569e-016
lhumerus 76.0042 -55.9534 -5.11173
lradius 104.426
lwrist 13.5317
lhand -10.1924 9.89035
lfingers 7.12502
lthumb 15.7984 39.2657
rfemur -12.0633 1.72878 18.1296
rtibia 30.7717
rfoot -16.9266 -15.043
rtoes -13.6287
lfemur -10.0354 -3.2464 -19.4183
ltibia 29.1797
lfoot -18.6703 9.76828
ltoes -15.4706
494
root -0.239431 17.8148 -2.04371 -0.379414 -1.26592 1.10175
lowerback 5.86548 2.08135 0.312853
upperback 1.81925 2.78795 0.0406041
thorax -1.39991 1.3913 -0.327104
lowerneck -1.91792 -5.10677 -5.76555
upperneck 3.59955 -6.82328 4.98136
head 1.8833 -3.39443 2.4284
rclavicle 3.14577e-014 -1.33186e-014
rhumerus 30.7105 44.9204 -38.8637
rradius 79.282
rwrist -38.8442
rhand -13.5515 22.8201
rfingers 7.12502
rthumb 12.5616 -6.78228
lclavicle 3.14577e-014 -1.33186e-014
lhumerus 74.6745 -55.6 -3.18752
lradius 104.413
lwrist 13.8081
lhand -10.5917 10.2278
lfingers 7.12502
lthumb 15.4138 39.6331
rfemur -12.0079 1.68109 18.1395
rtibia 30.749
rfoot -16.9302 -15.0762
rtoes -13.7459
lfemur -10.0336 -3.26998 -19.411
ltibia 29.1921
lfoot -18.6171 9.71526
ltoes -15.5804
495
root -0.239996 17.8157 -2.03784 -0.410884 -1.15557 1.10381
lowerback 5.7976 2.10512 0.278552
upperback 1.87341 2.81761 0.0566635
thorax -1.30875 1.40649 -0.289397
lowerneck -2.05234 -5.15479 -5.92334
upperneck 3.55785 -6.87919 5.10069
head 1.90997 -3.42062 2.49198
rclavicle 1.54307e-014 6.55989e-015
rhumerus 30.3453 46.1541 -38.2494
rradius 78.8271
rwrist -37.8816
rhand -13.6902 22.6894
rfingers 7.12502
rthumb 12.4278 -6.9211
lclavicle 1.54307e-014 6.55989e-015
lhumerus 73.3089 -55.1421 -1.17761
lradius 104.33
lwrist 14.4052
lhand -11.0411 10.8048
lfingers 7.12502
lthumb 14.9809 40.243
rfemur -11.9386 1.62066 18.1419
rtibia 30.7584
rfoot -16.906 -15.1888
rtoes -14.1822
lfemur -9.98662 -3.3526 -19.4192
ltibia 29.1895
lfoot -18.5762 9.68686
ltoes -15.681
496
root -0.242332 17.817 -2.03544 -0.389573 -1.03544 1.04122
lowerback 5.73949 2.12285 0.311894
upperback 1.8704 2.84336 0.0781815
thorax -1.27882 1.41946 -0.285362
lowerneck -2.05642 -5.18064 -6.11671
upperneck 3.47107 -6.91033 5.2429
head 1.89984 -3.43619 2.57416
rclavicle 1.41883e-014 -5.56597e-015
rhumerus 29.9446 47.593 -37.6155
rradius 78.6357
rwrist -37.0067
rhand -13.8967 22.3267
rfingers 7.12502
rthumb 12.2287 -7.29582
lclavicle 1.41883e-014 -5.56597e-015
lhumerus 71.7815 -54.7313 0.946174
lradius 104.109
lwrist 14.8546
lhand -11.6523 10.9965
lfingers 7.12502
lthumb 14.392 40.4775
rfemur -11.9298 1.54772 18.2279
rtibia 30.7979
rfoot -16.9679 -15.1817
rtoes -13.5928
lfemur -10.0163 -3.41752 -19.3387
ltibia 29.1852
lfoot -18.5704 9.6156
ltoes -15.5428
